<svg width="24" height="24" viewBox="0 0 24 24" fill="none" xmlns="http://www.w3.org/2000/svg">
<path d="M5.10473 0.107811C4.74277 0.318748 4.73745 0.356249 4.73745 2.11875V3.69844L2.65084 3.7125C0.606819 3.72656 0.553589 3.73125 0.372608 3.82969C0.271472 3.88594 0.14372 3.99375 0.0958135 4.06875C0.00532297 4.2 0 4.75312 0 13.8844C0 23.2781 0.00532297 23.5594 0.101136 23.6906C0.154366 23.7609 0.271472 23.8641 0.351316 23.9109C0.50036 23.9953 0.782477 24 9.59732 24C18.1673 24 18.7049 23.9953 18.854 23.9203C18.9391 23.8734 19.0616 23.7609 19.1254 23.6719C19.2372 23.5125 19.2425 23.4562 19.2585 21.9047L19.2745 20.3016L21.3345 20.2875C23.2827 20.2734 23.4051 20.2687 23.5755 20.1797C23.6766 20.1281 23.8043 20.025 23.8682 19.9547L23.98 19.8234L23.996 10.1812C24.0066 1.07344 24.0013 0.529686 23.9161 0.375C23.8629 0.285936 23.7405 0.164062 23.6393 0.107811L23.4583 0H14.372H5.28571L5.10473 0.107811ZM22.3565 10.125V18.8438H20.8128H19.2692V14.7656V10.6875L19.5673 10.3453C19.9612 9.89531 20.4083 9.08906 20.5839 8.50781C20.7117 8.08594 20.7223 7.95937 20.7223 7.24219C20.7223 6.53437 20.7064 6.39375 20.5839 5.99062C19.9984 4.05469 18.3217 2.67188 16.0488 2.24062C15.8625 2.20781 15.3994 2.18437 14.9309 2.18906C14.2549 2.18906 14.0527 2.20781 13.6215 2.31094C12.6474 2.53594 11.8649 2.89687 11.141 3.45L10.8163 3.70312H8.60193H6.38757V2.55469V1.40625H14.372H22.3565V10.125ZM16.0754 3.75C17.2039 4.03125 18.1354 4.71562 18.6623 5.64844C18.9977 6.24844 19.0775 6.56719 19.0775 7.24219C19.0775 7.89844 18.9977 8.22656 18.689 8.78906C18.1833 9.71719 17.3689 10.35 16.2297 10.6922C15.7666 10.8375 15.6762 10.8469 15.0108 10.8469C14.3986 10.8516 14.2336 10.8328 13.893 10.7437C12.4398 10.3406 11.4125 9.42656 11.0079 8.175C10.8535 7.69219 10.8429 6.83906 10.9866 6.375C11.4391 4.92656 12.7645 3.87656 14.4519 3.6375C14.7872 3.59062 15.6815 3.65625 16.0754 3.75ZM9.67184 5.23594C9.65587 5.28281 9.592 5.44219 9.53345 5.59219C9.30988 6.12187 9.24601 6.50625 9.24068 7.25156L9.23536 7.96875H6.57387C4.01352 7.96875 3.90706 7.97344 3.73673 8.0625C3.11394 8.4 3.27363 9.225 3.99223 9.37031C4.14127 9.40312 5.29104 9.42187 6.99971 9.42187L9.76766 9.42656L9.99654 9.7875C10.119 9.98437 10.3745 10.3125 10.5661 10.5094L10.9121 10.875H7.44152H3.96562L3.75802 10.9828C3.47058 11.1281 3.34283 11.3484 3.36944 11.6625C3.39073 11.9484 3.51316 12.1125 3.77931 12.2437C3.96029 12.3281 4.18386 12.3281 9.92735 12.3187L15.8891 12.3047L16.3948 12.1828C16.6716 12.1125 17.0655 11.9953 17.2624 11.9156L17.619 11.7703V17.1844V22.5938H9.60797H1.59689V13.875V5.15625H5.64768C9.48022 5.15625 9.69846 5.16094 9.67184 5.23594Z" fill="#222222"/>
<path d="M16.5171 5.65719C16.4213 5.70406 15.9476 6.07438 15.4579 6.48219L14.5743 7.22281L14.191 6.89938C13.664 6.44938 13.35 6.37906 12.9028 6.61344C12.5941 6.7775 12.461 7.24625 12.6367 7.53688C12.7272 7.68688 14.0313 8.82594 14.1963 8.90094C14.3507 8.97125 14.7925 8.96188 14.9469 8.89156C15.197 8.765 17.5764 6.73531 17.6509 6.58063C17.7574 6.36031 17.7414 6.19156 17.6084 5.9525C17.4008 5.60563 16.9057 5.46969 16.5171 5.65719Z" fill="#222222"/>
<path d="M3.73671 13.9214C3.2257 14.198 3.2257 14.8636 3.73671 15.1402C3.91237 15.2339 3.99753 15.2339 9.67182 15.2246L15.426 15.2105L15.5697 15.0933C15.9955 14.7417 15.9529 14.1746 15.4792 13.9214C15.3089 13.8277 15.1971 13.8277 9.60795 13.8277C4.01883 13.8277 3.90704 13.8277 3.73671 13.9214Z" fill="#222222"/>
<path d="M3.83259 19.7203C3.79001 19.7344 3.6942 19.7906 3.63032 19.8469C3.22045 20.175 3.27368 20.7516 3.73678 21C3.90712 21.0891 4.01358 21.0938 6.18003 21.0938C8.44229 21.0938 8.44761 21.0938 8.62327 20.9859C9.10766 20.6953 9.11298 20.0766 8.62859 19.7953L8.44761 19.6875L6.18003 19.6922C4.93445 19.6922 3.87518 19.7062 3.83259 19.7203Z" fill="#222222"/>
</svg>
