<svg width="24" height="24" viewBox="0 0 24 24" fill="#222222" xmlns="http://www.w3.org/2000/svg">
<g clip-path="url(#clip0_9694_4110)">
<path d="M11.9997 11.4834C13.0133 11.4847 14.0045 11.1854 14.8479 10.6233C15.6913 10.0612 16.3491 9.26147 16.7379 8.32543C17.1267 7.38938 17.2292 6.35904 17.0323 5.36475C16.8354 4.37047 16.3479 3.45694 15.6317 2.73974C14.9155 2.02254 14.0026 1.53391 13.0086 1.33567C12.0146 1.13743 10.9841 1.23848 10.0475 1.62605C9.11094 2.01362 8.31038 2.67029 7.74712 3.51297C7.18386 4.35564 6.8832 5.34646 6.8832 6.36005C6.8832 7.71765 7.42204 9.01975 8.38136 9.98037C9.34069 10.941 10.6421 11.4816 11.9997 11.4834ZM12.0001 2.86338C12.6909 2.86212 13.3666 3.06589 13.9415 3.44889C14.5164 3.83189 14.9647 4.37689 15.2296 5.01486C15.4946 5.65284 15.5642 6.35509 15.4298 7.03268C15.2953 7.71027 14.9628 8.33271 14.4743 8.82118C13.9859 9.30965 13.3634 9.64217 12.6858 9.77663C12.0082 9.91109 11.306 9.84144 10.668 9.57649C10.03 9.31155 9.48504 8.86324 9.10204 8.28833C8.71904 7.71343 8.51527 7.03779 8.51654 6.34699C8.51823 5.4236 8.88579 4.53851 9.53873 3.88557C10.1917 3.23264 11.0768 2.86507 12.0001 2.86338Z" fill="#222222" stroke="black" stroke-width="0.3"/>
<path d="M18.7864 14.2652C16.7559 12.9863 14.4004 12.3187 12.0009 12.3421C10.2446 12.2977 8.50003 12.6412 6.89155 13.348C5.28227 14.0552 3.84881 15.1088 2.69339 16.4335L2.69321 16.4334L2.68795 16.4401C2.57901 16.5805 2.5188 16.7525 2.51645 16.9301L2.51643 16.9301V16.9321V21.257C2.50701 21.6591 2.65701 22.0487 2.93376 22.3406C3.21094 22.6331 3.59269 22.8038 3.99544 22.8154L3.99544 22.8154H3.99977H12.2598H12.6092L12.3685 22.5621L11.1019 21.2288L11.0581 21.1828L10.9947 21.1821L4.14977 21.1103V17.239C5.15652 16.1943 6.36712 15.3671 7.70678 14.8089C9.06485 14.2431 10.5258 13.966 11.9968 13.9954L11.9968 13.9955L12.0018 13.9954C14.0159 13.9683 15.9983 14.4986 17.7298 15.5277L17.836 15.5908L17.9183 15.4988L18.8183 14.4921L18.9366 14.3598L18.7864 14.2652Z" fill="#222222" stroke="black" stroke-width="0.3"/>
<path d="M19.8492 18.9515V21.1815L19.9992 22.6648C20.3576 22.6544 20.6977 22.5042 20.9469 22.2463C21.196 21.9885 21.3344 21.6434 21.3326 21.2848H21.4826V21.2845V17.4648V17.0729L21.2209 17.3647L19.8876 18.8514L19.8492 18.8941V18.9515Z" fill="#222222" stroke="black" stroke-width="0.3"/>
<path d="M23.2749 12.305L23.275 12.305L23.2724 12.3028C23.1109 12.159 22.899 12.0852 22.6832 12.0974C22.4673 12.1097 22.2651 12.207 22.1209 12.3681L22.1209 12.3682L14.4838 20.9122L11.1312 17.3081C11.0619 17.2278 10.9776 17.1617 10.883 17.1135C10.7874 17.0649 10.6832 17.0356 10.5762 17.0272C10.4693 17.0189 10.3618 17.0317 10.2598 17.0649C10.1578 17.0981 10.0634 17.1511 9.98187 17.2208L9.98182 17.2208L9.97843 17.2238C9.89859 17.2965 9.83394 17.3842 9.78822 17.482C9.7425 17.5798 9.71661 17.6856 9.71206 17.7935C9.7075 17.9013 9.72436 18.009 9.76168 18.1102C9.79899 18.2115 9.856 18.3044 9.92943 18.3835L9.92949 18.3836L14.3895 23.1836L14.5014 23.304L14.6111 23.1815L23.3378 13.4349L23.3378 13.4349L23.3403 13.432C23.4766 13.2719 23.5458 13.0654 23.5337 12.8554C23.5215 12.6455 23.4288 12.4483 23.2749 12.305Z" fill="#222222" stroke="black" stroke-width="0.3"/>
</g>
<defs>
<clipPath id="clip0_9694_4110">
<rect width="24" height="24" fill="#222222"/>
</clipPath>
</defs>
</svg>
